<svg xmlns="http://www.w3.org/2000/svg" width="770" height="240" viewBox="0 0 770 240">
  <g transform="translate(0.5,0.5)" text-anchor="middle" font-size="14" font-family="sans-serif" font-weight="normal">
    <g transform="translate(4,201)">
      <g stroke="black" stroke-width="1" stroke-linecap="round">
        <line x2="761"/>
        <line y2="35"/>
        <line x2="761" y1="35" y2="35"/>
        <line x1="761" x2="761" y2="35"/>
        <line x1="713" x2="713" y2="4"/>
        <line x1="713" x2="713" y1="35" y2="31"/>
        <line x1="666" x2="666" y2="4"/>
        <line x1="666" x2="666" y1="35" y2="31"/>
        <line x1="618" x2="618" y2="4"/>
        <line x1="618" x2="618" y1="35" y2="31"/>
        <line x1="571" x2="571" y2="4"/>
        <line x1="571" x2="571" y1="35" y2="31"/>
        <line x1="523" x2="523" y2="4"/>
        <line x1="523" x2="523" y1="35" y2="31"/>
        <line x1="476" x2="476" y2="4"/>
        <line x1="476" x2="476" y1="35" y2="31"/>
        <line x1="428" x2="428" y2="4"/>
        <line x1="428" x2="428" y1="35" y2="31"/>
        <line x1="381" x2="381" y2="4"/>
        <line x1="381" x2="381" y1="35" y2="31"/>
        <line x1="333" x2="333" y2="4"/>
        <line x1="333" x2="333" y1="35" y2="31"/>
        <line x1="285" x2="285" y2="4"/>
        <line x1="285" x2="285" y1="35" y2="31"/>
        <line x1="238" x2="238" y2="4"/>
        <line x1="238" x2="238" y1="35" y2="31"/>
        <line x1="190" x2="190" y2="4"/>
        <line x1="190" x2="190" y1="35" y2="31"/>
        <line x1="143" x2="143" y2="4"/>
        <line x1="143" x2="143" y1="35" y2="31"/>
        <line x1="95" x2="95" y2="4"/>
        <line x1="95" x2="95" y1="35" y2="31"/>
        <line x1="48" x2="48" y2="4"/>
        <line x1="48" x2="48" y1="35" y2="31"/>
      </g>
      <g>
        <g>
          <rect width="761" height="35" field="T counter number" style="fill-opacity:0.1;fill:#ffbf00"/>
        </g>
        <g transform="translate(24,-11)">
          <g transform="translate(713)">
            <text y="6">0</text>
          </g>
          <g transform="translate(0)">
            <text y="6">15</text>
          </g>
        </g>
        <g transform="translate(24,17)">
          <g transform="translate(357)">
            <text y="6">
              <tspan>T counter number</tspan>
            </text>
          </g>
        </g>
        <g transform="translate(24,43)"/>
      </g>
    </g>
    <g transform="translate(4,141)">
      <g stroke="black" stroke-width="1" stroke-linecap="round">
        <line x2="761"/>
        <line y2="35"/>
        <line x2="761" y1="35" y2="35"/>
        <line x1="761" x2="761" y2="35"/>
        <line x1="713" x2="713" y2="4"/>
        <line x1="713" x2="713" y1="35" y2="31"/>
        <line x1="666" x2="666" y2="4"/>
        <line x1="666" x2="666" y1="35" y2="31"/>
        <line x1="618" x2="618" y2="4"/>
        <line x1="618" x2="618" y1="35" y2="31"/>
        <line x1="571" x2="571" y2="4"/>
        <line x1="571" x2="571" y1="35" y2="31"/>
        <line x1="523" x2="523" y2="4"/>
        <line x1="523" x2="523" y1="35" y2="31"/>
        <line x1="476" x2="476" y2="4"/>
        <line x1="476" x2="476" y1="35" y2="31"/>
        <line x1="428" x2="428" y2="4"/>
        <line x1="428" x2="428" y1="35" y2="31"/>
        <line x1="381" x2="381" y2="4"/>
        <line x1="381" x2="381" y1="35" y2="31"/>
        <line x1="333" x2="333" y2="4"/>
        <line x1="333" x2="333" y1="35" y2="31"/>
        <line x1="285" x2="285" y2="4"/>
        <line x1="285" x2="285" y1="35" y2="31"/>
        <line x1="238" x2="238" y2="4"/>
        <line x1="238" x2="238" y1="35" y2="31"/>
        <line x1="190" x2="190" y2="4"/>
        <line x1="190" x2="190" y1="35" y2="31"/>
        <line x1="143" x2="143" y2="4"/>
        <line x1="143" x2="143" y1="35" y2="31"/>
        <line x1="95" x2="95" y2="4"/>
        <line x1="95" x2="95" y1="35" y2="31"/>
        <line x1="48" x2="48" y2="4"/>
        <line x1="48" x2="48" y1="35" y2="31"/>
      </g>
      <g>
        <g>
          <rect width="761" height="35" field="T counter number" style="fill-opacity:0.1;fill:#ffbf00"/>
        </g>
        <g transform="translate(24,-11)">
          <g transform="translate(713)">
            <text y="6">16</text>
          </g>
          <g transform="translate(0)">
            <text y="6">31</text>
          </g>
        </g>
        <g transform="translate(24,17)">
          <g transform="translate(357)">
            <text y="6">
              <tspan>T counter number</tspan>
            </text>
          </g>
        </g>
        <g transform="translate(24,43)"/>
      </g>
    </g>
    <g transform="translate(4,81)">
      <g stroke="black" stroke-width="1" stroke-linecap="round">
        <line x2="761"/>
        <line y2="35"/>
        <line x2="761" y1="35" y2="35"/>
        <line x1="761" x2="761" y2="35"/>
        <line x1="713" x2="713" y2="4"/>
        <line x1="713" x2="713" y1="35" y2="31"/>
        <line x1="666" x2="666" y2="4"/>
        <line x1="666" x2="666" y1="35" y2="31"/>
        <line x1="618" x2="618" y2="4"/>
        <line x1="618" x2="618" y1="35" y2="31"/>
        <line x1="571" x2="571" y2="4"/>
        <line x1="571" x2="571" y1="35" y2="31"/>
        <line x1="523" x2="523" y2="4"/>
        <line x1="523" x2="523" y1="35" y2="31"/>
        <line x1="476" x2="476" y2="4"/>
        <line x1="476" x2="476" y1="35" y2="31"/>
        <line x1="428" x2="428" y2="4"/>
        <line x1="428" x2="428" y1="35" y2="31"/>
        <line x1="381" x2="381" y2="4"/>
        <line x1="381" x2="381" y1="35" y2="31"/>
        <line x1="333" x2="333" y2="4"/>
        <line x1="333" x2="333" y1="35" y2="31"/>
        <line x1="285" x2="285" y2="35"/>
        <line x1="238" x2="238" y2="4"/>
        <line x1="238" x2="238" y1="35" y2="31"/>
        <line x1="190" x2="190" y2="4"/>
        <line x1="190" x2="190" y1="35" y2="31"/>
        <line x1="143" x2="143" y2="4"/>
        <line x1="143" x2="143" y1="35" y2="31"/>
        <line x1="95" x2="95" y2="4"/>
        <line x1="95" x2="95" y1="35" y2="31"/>
        <line x1="48" x2="48" y2="4"/>
        <line x1="48" x2="48" y1="35" y2="31"/>
      </g>
      <g>
        <g>
          <rect x="285" width="476" height="35" field="T counter number" style="fill-opacity:0.1;fill:#ffbf00"/>
          <rect width="285" height="35" field="Partition Entity Id or Implicit Number" style="fill-opacity:0.1;fill:#00ffd5"/>
        </g>
        <g transform="translate(24,-11)">
          <g transform="translate(713)">
            <text y="6">32</text>
          </g>
          <g transform="translate(285)">
            <text y="6">41</text>
          </g>
          <g transform="translate(238)">
            <text y="6">42</text>
          </g>
          <g transform="translate(0)">
            <text y="6">47</text>
          </g>
        </g>
        <g transform="translate(24,17)">
          <g transform="translate(499)">
            <text y="6">
              <tspan>T counter number</tspan>
            </text>
          </g>
          <g transform="translate(119)">
            <text y="6">
              <tspan>Partition Entity Id or Implicit Number</tspan>
            </text>
          </g>
        </g>
        <g transform="translate(24,43)"/>
      </g>
    </g>
    <g transform="translate(4,21)">
      <g stroke="black" stroke-width="1" stroke-linecap="round">
        <line x2="761"/>
        <line y2="35"/>
        <line x2="761" y1="35" y2="35"/>
        <line x1="761" x2="761" y2="35"/>
        <line x1="713" x2="713" y2="4"/>
        <line x1="713" x2="713" y1="35" y2="31"/>
        <line x1="666" x2="666" y2="4"/>
        <line x1="666" x2="666" y1="35" y2="31"/>
        <line x1="618" x2="618" y2="4"/>
        <line x1="618" x2="618" y1="35" y2="31"/>
        <line x1="571" x2="571" y2="4"/>
        <line x1="571" x2="571" y1="35" y2="31"/>
        <line x1="523" x2="523" y2="4"/>
        <line x1="523" x2="523" y1="35" y2="31"/>
        <line x1="476" x2="476" y2="4"/>
        <line x1="476" x2="476" y1="35" y2="31"/>
        <line x1="428" x2="428" y2="4"/>
        <line x1="428" x2="428" y1="35" y2="31"/>
        <line x1="381" x2="381" y2="4"/>
        <line x1="381" x2="381" y1="35" y2="31"/>
        <line x1="333" x2="333" y2="4"/>
        <line x1="333" x2="333" y1="35" y2="31"/>
        <line x1="285" x2="285" y2="4"/>
        <line x1="285" x2="285" y1="35" y2="31"/>
        <line x1="238" x2="238" y2="4"/>
        <line x1="238" x2="238" y1="35" y2="31"/>
        <line x1="190" x2="190" y2="4"/>
        <line x1="190" x2="190" y1="35" y2="31"/>
        <line x1="143" x2="143" y2="35"/>
        <line x1="95" x2="95" y2="35"/>
        <line x1="48" x2="48" y2="35"/>
      </g>
      <g>
        <g>
          <rect x="143" width="618" height="35" field="Partition Entity Id or Implicit Number" style="fill-opacity:0.1;fill:#00ffd5"/>
          <rect x="95" width="48" height="35" field="PType" style="fill-opacity:0.1;fill:#00ffd5"/>
          <rect x="48" width="48" height="35" field="undefined" style="fill-opacity:0.1;fill:#ff0000"/>
          <rect width="48" height="35" field="TempId" style="fill-opacity:0.1"/>
        </g>
        <g transform="translate(24,-11)">
          <g transform="translate(713)">
            <text y="6">48</text>
          </g>
          <g transform="translate(143)">
            <text y="6">60</text>
          </g>
          <g transform="translate(95)">
            <text y="6">61</text>
          </g>
          <g transform="translate(48)">
            <text y="6">62</text>
          </g>
          <g transform="translate(0)">
            <text y="6">63</text>
          </g>
        </g>
        <g transform="translate(24,17)">
          <g transform="translate(428)">
            <text y="6">
              <tspan>Partition Entity Id or Implicit Number</tspan>
            </text>
          </g>
          <g transform="translate(95)">
            <text y="6" transform="rotate(-30)">
              <tspan>PType</tspan>
            </text>
          </g>
          <g transform="translate(0)">
            <text y="6" transform="rotate(-30)">
              <tspan>TempId</tspan>
            </text>
          </g>
        </g>
        <g transform="translate(24,43)"/>
      </g>
    </g>
  </g>
</svg>

